# Blender v3.2.0 OBJ File: ''
# www.blender.org
o Sphere_Sphere.001
v -0.309017 0.000000 0.951057
v -0.951057 0.000000 0.309017
v -1.000000 0.000000 -0.000000
v -0.951056 0.000000 -0.309017
v -0.587785 0.000000 -0.809017
v -0.309017 0.000000 -0.951056
v -0.285494 0.118256 0.951057
v -0.543043 0.224936 0.809017
v -0.747434 0.309597 0.587785
v -0.878662 0.363954 0.309017
v -0.923880 0.382683 -0.000000
v -0.878662 0.363954 -0.309017
v -0.747434 0.309597 -0.587785
v -0.543043 0.224936 -0.809017
v -0.285495 0.118256 -0.951056
v 0.000000 0.000000 -1.000000
v -0.218508 0.218508 0.951057
v -0.415627 0.415627 0.809017
v -0.572061 0.572061 0.587785
v -0.672498 0.672499 0.309017
v -0.707107 0.707107 -0.000000
v -0.672498 0.672499 -0.309017
v -0.572061 0.572061 -0.587785
v -0.415627 0.415627 -0.809017
v -0.218508 0.218508 -0.951056
v -0.118256 0.285495 0.951057
v -0.224936 0.543043 0.809017
v -0.309597 0.747434 0.587785
v -0.363953 0.878662 0.309017
v -0.382683 0.923880 -0.000000
v -0.363953 0.878662 -0.309017
v -0.309597 0.747434 -0.587785
v -0.224936 0.543043 -0.809017
v -0.118256 0.285495 -0.951056
v 0.000000 0.309017 0.951057
v 0.000000 0.587785 0.809017
v 0.000000 0.809017 0.587785
v 0.000000 0.951057 0.309017
v 0.000000 1.000000 -0.000000
v 0.000000 0.951057 -0.309017
v 0.000000 0.809017 -0.587785
v 0.000000 0.587785 -0.809017
v 0.000000 0.309017 -0.951056
v 0.118256 0.285495 0.951057
v 0.224936 0.543043 0.809017
v 0.309598 0.747434 0.587785
v 0.363954 0.878662 0.309017
v 0.382684 0.923879 -0.000000
v 0.363954 0.878662 -0.309017
v 0.309598 0.747434 -0.587785
v 0.224936 0.543043 -0.809017
v 0.118256 0.285495 -0.951056
v 0.218508 0.218508 0.951057
v 0.415627 0.415627 0.809017
v 0.572062 0.572061 0.587785
v 0.672499 0.672498 0.309017
v 0.707107 0.707107 -0.000000
v 0.672499 0.672498 -0.309017
v 0.572062 0.572061 -0.587785
v 0.415627 0.415627 -0.809017
v 0.218508 0.218508 -0.951056
v 0.285495 0.118256 0.951057
v 0.543043 0.224936 0.809017
v 0.747434 0.309597 0.587785
v 0.878662 0.363953 0.309017
v 0.923880 0.382683 -0.000000
v 0.878662 0.363953 -0.309017
v 0.747434 0.309597 -0.587785
v 0.543043 0.224936 -0.809017
v 0.285495 0.118256 -0.951056
v 0.309017 -0.000000 0.951057
v 0.587785 -0.000000 0.809017
v 0.809017 -0.000000 0.587785
v 0.951057 -0.000000 0.309017
v 1.000000 -0.000000 -0.000000
v 0.951057 -0.000000 -0.309017
v 0.809017 -0.000000 -0.587785
v 0.587785 -0.000000 -0.809017
v 0.309017 -0.000000 -0.951056
v 0.285495 -0.118256 0.951057
v 0.543043 -0.224936 0.809017
v 0.747434 -0.309598 0.587785
v 0.878662 -0.363954 0.309017
v 0.923880 -0.382684 -0.000000
v 0.878662 -0.363954 -0.309017
v 0.747434 -0.309598 -0.587785
v 0.543043 -0.224936 -0.809017
v 0.285495 -0.118256 -0.951056
v 0.218508 -0.218508 0.951057
v 0.415627 -0.415627 0.809017
v 0.572061 -0.572062 0.587785
v 0.672498 -0.672499 0.309017
v 0.707107 -0.707107 -0.000000
v 0.672498 -0.672499 -0.309017
v 0.572061 -0.572062 -0.587785
v 0.415627 -0.415627 -0.809017
v 0.218508 -0.218508 -0.951056
v 0.000000 -0.000000 1.000000
v 0.118256 -0.285495 0.951057
v 0.224936 -0.543043 0.809017
v 0.309597 -0.747434 0.587785
v 0.363953 -0.878662 0.309017
v 0.382683 -0.923880 -0.000000
v 0.363953 -0.878662 -0.309017
v 0.309597 -0.747434 -0.587785
v 0.224936 -0.543043 -0.809017
v 0.118256 -0.285495 -0.951056
v -0.000000 -0.309017 0.951057
v -0.000000 -0.587785 0.809017
v -0.000000 -0.809017 0.587785
v -0.000000 -0.951056 0.309017
v -0.000000 -1.000000 -0.000000
v -0.000000 -0.951056 -0.309017
v -0.000000 -0.809017 -0.587785
v -0.000000 -0.587785 -0.809017
v -0.000000 -0.309017 -0.951056
v -0.118256 -0.285494 0.951057
v -0.224936 -0.543042 0.809017
v -0.309598 -0.747434 0.587785
v -0.363954 -0.878661 0.309017
v -0.382684 -0.923879 -0.000000
v -0.363954 -0.878661 -0.309017
v -0.309598 -0.747434 -0.587785
v -0.224936 -0.543042 -0.809017
v -0.118256 -0.285494 -0.951056
v -0.218508 -0.218508 0.951057
v -0.415627 -0.415627 0.809017
v -0.572061 -0.572061 0.587785
v -0.672499 -0.672498 0.309017
v -0.707107 -0.707106 -0.000000
v -0.672499 -0.672498 -0.309017
v -0.572061 -0.572061 -0.587785
v -0.415627 -0.415627 -0.809017
v -0.218508 -0.218508 -0.951056
v -0.285495 -0.118256 0.951057
v -0.543043 -0.224935 0.809017
v -0.747434 -0.309597 0.587785
v -0.878662 -0.363953 0.309017
v -0.923880 -0.382683 -0.000000
v -0.878662 -0.363953 -0.309017
v -0.747434 -0.309597 -0.587785
v -0.543043 -0.224935 -0.809017
v -0.285494 -0.118256 -0.951056
v -0.587785 0.000000 0.809017
v -0.809017 0.000000 0.587785
v -0.809017 0.000000 -0.587785
vt 0.750000 0.100000
vt 0.750000 0.200000
vt 0.687500 0.200000
vt 0.687500 0.100000
vt 0.750000 0.400000
vt 0.750000 0.500000
vt 0.687500 0.500000
vt 0.687500 0.400000
vt 0.750000 0.700000
vt 0.750000 0.800000
vt 0.687500 0.800000
vt 0.687500 0.700000
vt 0.718750 0.000000
vt 0.750000 0.300000
vt 0.687500 0.300000
vt 0.750000 0.600000
vt 0.687500 0.600000
vt 0.750000 0.900000
vt 0.718750 1.000000
vt 0.687500 0.900000
vt 0.625000 0.500000
vt 0.625000 0.400000
vt 0.625000 0.800000
vt 0.625000 0.700000
vt 0.656250 0.000000
vt 0.625000 0.100000
vt 0.625000 0.300000
vt 0.625000 0.600000
vt 0.656250 1.000000
vt 0.625000 0.900000
vt 0.625000 0.200000
vt 0.562500 0.900000
vt 0.562500 0.800000
vt 0.562500 0.200000
vt 0.562500 0.100000
vt 0.562500 0.500000
vt 0.562500 0.400000
vt 0.562500 0.700000
vt 0.593750 0.000000
vt 0.562500 0.300000
vt 0.562500 0.600000
vt 0.593750 1.000000
vt 0.500000 0.300000
vt 0.500000 0.200000
vt 0.500000 0.600000
vt 0.500000 0.500000
vt 0.500000 0.900000
vt 0.500000 0.800000
vt 0.500000 0.100000
vt 0.500000 0.400000
vt 0.500000 0.700000
vt 0.531250 0.000000
vt 0.531250 1.000000
vt 0.437500 0.700000
vt 0.437500 0.600000
vt 0.468750 1.000000
vt 0.437500 0.900000
vt 0.437500 0.300000
vt 0.437500 0.200000
vt 0.437500 0.500000
vt 0.437500 0.800000
vt 0.437500 0.100000
vt 0.437500 0.400000
vt 0.468750 0.000000
vt 0.375000 0.400000
vt 0.375000 0.300000
vt 0.375000 0.700000
vt 0.375000 0.600000
vt 0.406250 1.000000
vt 0.375000 0.900000
vt 0.375000 0.200000
vt 0.375000 0.500000
vt 0.375000 0.800000
vt 0.375000 0.100000
vt 0.406250 0.000000
vt 0.312500 0.800000
vt 0.312500 0.700000
vt 0.343750 0.000000
vt 0.312500 0.100000
vt 0.312500 0.400000
vt 0.312500 0.300000
vt 0.312500 0.600000
vt 0.343750 1.000000
vt 0.312500 0.900000
vt 0.312500 0.200000
vt 0.312500 0.500000
vt 0.250000 0.200000
vt 0.250000 0.100000
vt 0.250000 0.500000
vt 0.250000 0.400000
vt 0.250000 0.800000
vt 0.250000 0.700000
vt 0.281250 0.000000
vt 0.250000 0.300000
vt 0.250000 0.600000
vt 0.281250 1.000000
vt 0.250000 0.900000
vt 0.187500 0.600000
vt 0.187500 0.500000
vt 0.187500 0.900000
vt 0.187500 0.800000
vt 0.187500 0.200000
vt 0.187500 0.100000
vt 0.187500 0.400000
vt 0.187500 0.700000
vt 0.218750 0.000000
vt 0.187500 0.300000
vt 0.218750 1.000000
vt 0.156250 1.000000
vt 0.125000 0.900000
vt 0.125000 0.300000
vt 0.125000 0.200000
vt 0.125000 0.600000
vt 0.125000 0.500000
vt 0.125000 0.800000
vt 0.125000 0.100000
vt 0.125000 0.400000
vt 0.125000 0.700000
vt 0.156250 0.000000
vt 0.062500 0.700000
vt 0.062500 0.600000
vt 0.093750 1.000000
vt 0.062500 0.900000
vt 0.062500 0.300000
vt 0.062500 0.200000
vt 0.062500 0.500000
vt 0.062500 0.800000
vt 0.062500 0.100000
vt 0.062500 0.400000
vt 0.093750 0.000000
vt 0.031250 0.000000
vt 0.000000 0.100000
vt 0.000000 0.400000
vt 0.000000 0.300000
vt 0.000000 0.700000
vt 0.000000 0.600000
vt 0.031250 1.000000
vt 0.000000 0.900000
vt 0.000000 0.200000
vt 0.000000 0.500000
vt 0.000000 0.800000
vt 1.000000 0.400000
vt 1.000000 0.500000
vt 0.937500 0.500000
vt 0.937500 0.400000
vt 1.000000 0.700000
vt 1.000000 0.800000
vt 0.937500 0.800000
vt 0.937500 0.700000
vt 0.968750 0.000000
vt 1.000000 0.100000
vt 0.937500 0.100000
vt 1.000000 0.300000
vt 0.937500 0.300000
vt 1.000000 0.600000
vt 0.937500 0.600000
vt 1.000000 0.900000
vt 0.968750 1.000000
vt 0.937500 0.900000
vt 1.000000 0.200000
vt 0.937500 0.200000
vt 0.875000 0.900000
vt 0.875000 0.800000
vt 0.875000 0.200000
vt 0.875000 0.100000
vt 0.875000 0.500000
vt 0.875000 0.400000
vt 0.875000 0.700000
vt 0.906250 0.000000
vt 0.875000 0.300000
vt 0.875000 0.600000
vt 0.906250 1.000000
vt 0.812500 0.600000
vt 0.812500 0.500000
vt 0.812500 0.900000
vt 0.812500 0.800000
vt 0.812500 0.200000
vt 0.812500 0.100000
vt 0.812500 0.400000
vt 0.812500 0.700000
vt 0.843750 0.000000
vt 0.812500 0.300000
vt 0.843750 1.000000
vt 0.781250 1.000000
vt 0.781250 0.000000
vn -0.3265 -0.0000 -0.9452
vn -0.6003 -0.0000 -0.7998
vn -0.5546 0.2297 -0.7998
vn -0.3016 0.1249 -0.9452
vn -0.9528 -0.0000 -0.3034
vn -1.0000 -0.0000 -0.0000
vn -0.9239 0.3827 -0.0000
vn -0.8803 0.3646 -0.3034
vn -0.8155 0.0000 0.5787
vn -0.6003 0.0000 0.7998
vn -0.5546 0.2297 0.7998
vn -0.7535 0.3121 0.5787
vn -0.0000 -0.0000 -1.0000
vn -0.8155 0.0000 -0.5787
vn -0.7535 0.3121 -0.5787
vn -0.9528 -0.0000 0.3034
vn -0.8803 0.3646 0.3034
vn -0.3265 -0.0000 0.9452
vn 0.0000 -0.0000 1.0000
vn -0.3016 0.1249 0.9452
vn -0.7071 0.7071 -0.0000
vn -0.6738 0.6738 -0.3034
vn -0.4245 0.4245 0.7998
vn -0.5767 0.5767 0.5787
vn -0.2309 0.2309 -0.9452
vn -0.5767 0.5767 -0.5787
vn -0.6738 0.6738 0.3034
vn -0.2309 0.2309 0.9452
vn -0.4245 0.4245 -0.7998
vn -0.1249 0.3016 0.9452
vn -0.2297 0.5546 0.7998
vn -0.2297 0.5546 -0.7998
vn -0.1249 0.3016 -0.9452
vn -0.3827 0.9239 -0.0000
vn -0.3646 0.8803 -0.3034
vn -0.3121 0.7535 0.5787
vn -0.3121 0.7535 -0.5787
vn -0.3646 0.8803 0.3034
vn 0.0000 0.8155 -0.5787
vn 0.0000 0.6003 -0.7998
vn 0.0000 0.9528 0.3034
vn 0.0000 1.0000 0.0000
vn 0.0000 0.3265 0.9452
vn 0.0000 0.6003 0.7998
vn 0.0000 0.3265 -0.9452
vn 0.0000 0.9528 -0.3034
vn 0.0000 0.8155 0.5787
vn 0.3121 0.7535 0.5787
vn 0.3646 0.8803 0.3034
vn 0.1249 0.3016 0.9452
vn 0.3121 0.7535 -0.5787
vn 0.2297 0.5546 -0.7998
vn 0.3827 0.9239 0.0000
vn 0.2297 0.5546 0.7998
vn 0.1249 0.3016 -0.9452
vn 0.3646 0.8803 -0.3034
vn 0.6738 0.6738 -0.3034
vn 0.5767 0.5767 -0.5787
vn 0.5767 0.5767 0.5787
vn 0.6738 0.6738 0.3034
vn 0.2309 0.2309 0.9452
vn 0.4245 0.4245 -0.7998
vn 0.7071 0.7071 -0.0000
vn 0.4245 0.4245 0.7998
vn 0.2309 0.2309 -0.9452
vn 0.5546 0.2297 0.7998
vn 0.7535 0.3121 0.5787
vn 0.3016 0.1249 -0.9452
vn 0.8803 0.3646 -0.3034
vn 0.7535 0.3121 -0.5787
vn 0.8803 0.3646 0.3034
vn 0.3016 0.1249 0.9452
vn 0.5546 0.2297 -0.7998
vn 0.9239 0.3827 -0.0000
vn 0.6003 -0.0000 -0.7998
vn 0.3265 -0.0000 -0.9452
vn 1.0000 -0.0000 -0.0000
vn 0.9528 -0.0000 -0.3034
vn 0.6003 -0.0000 0.7998
vn 0.8155 -0.0000 0.5787
vn 0.8155 -0.0000 -0.5787
vn 0.9528 -0.0000 0.3034
vn 0.3265 -0.0000 0.9452
vn 0.8803 -0.3646 0.3034
vn 0.9239 -0.3827 -0.0000
vn 0.3016 -0.1249 0.9452
vn 0.5546 -0.2297 0.7998
vn 0.5546 -0.2297 -0.7998
vn 0.3016 -0.1249 -0.9452
vn 0.8803 -0.3646 -0.3034
vn 0.7535 -0.3121 0.5787
vn 0.7535 -0.3121 -0.5787
vn 0.2309 -0.2309 0.9452
vn 0.5767 -0.5767 -0.5787
vn 0.4245 -0.4245 -0.7998
vn 0.6738 -0.6738 0.3034
vn 0.7071 -0.7071 0.0000
vn 0.4245 -0.4245 0.7998
vn 0.2309 -0.2309 -0.9452
vn 0.6738 -0.6738 -0.3034
vn 0.5767 -0.5767 0.5787
vn 0.3121 -0.7535 0.5787
vn 0.3646 -0.8803 0.3034
vn 0.1249 -0.3016 0.9452
vn 0.3121 -0.7535 -0.5787
vn 0.2297 -0.5546 -0.7998
vn 0.3827 -0.9239 0.0000
vn 0.2297 -0.5546 0.7998
vn 0.1249 -0.3016 -0.9452
vn 0.3646 -0.8803 -0.3034
vn -0.0000 -0.3265 -0.9452
vn -0.0000 -0.9528 -0.3034
vn -0.0000 -0.8155 -0.5787
vn -0.0000 -0.8155 0.5787
vn -0.0000 -0.9528 0.3034
vn -0.0000 -0.3265 0.9452
vn -0.0000 -0.6003 -0.7998
vn -0.0000 -1.0000 0.0000
vn -0.0000 -0.6003 0.7998
vn -0.3827 -0.9239 0.0000
vn -0.3646 -0.8803 -0.3034
vn -0.2297 -0.5546 0.7998
vn -0.3121 -0.7535 0.5787
vn -0.1249 -0.3016 -0.9452
vn -0.3121 -0.7535 -0.5787
vn -0.3646 -0.8803 0.3034
vn -0.1249 -0.3016 0.9452
vn -0.2297 -0.5546 -0.7998
vn -0.2309 -0.2309 0.9452
vn -0.4245 -0.4245 0.7998
vn -0.4245 -0.4245 -0.7998
vn -0.2309 -0.2309 -0.9452
vn -0.7071 -0.7071 0.0000
vn -0.6738 -0.6738 -0.3034
vn -0.5767 -0.5767 0.5787
vn -0.5767 -0.5767 -0.5787
vn -0.6738 -0.6738 0.3034
vn -0.8803 -0.3646 0.3034
vn -0.9239 -0.3827 -0.0000
vn -0.3016 -0.1249 0.9452
vn -0.5546 -0.2297 0.7998
vn -0.5546 -0.2297 -0.7998
vn -0.3016 -0.1249 -0.9452
vn -0.8803 -0.3646 -0.3034
vn -0.7535 -0.3121 0.5787
vn -0.7535 -0.3121 -0.5787
s 1
f 6/1/1 5/2/2 14/3/3 15/4/4
f 4/5/5 3/6/6 11/7/7 12/8/8
f 145/9/9 144/10/10 8/11/11 9/12/12
f 16/13/13 6/1/1 15/4/4
f 146/14/14 4/5/5 12/8/8 13/15/15
f 2/16/16 145/9/9 9/12/12 10/17/17
f 1/18/18 98/19/19 7/20/20
f 5/2/2 146/14/14 13/15/15 14/3/3
f 3/6/6 2/16/16 10/17/17 11/7/7
f 144/10/10 1/18/18 7/20/20 8/11/11
f 12/8/8 11/7/7 21/21/21 22/22/22
f 9/12/12 8/11/11 18/23/23 19/24/24
f 16/25/13 15/4/4 25/26/25
f 13/15/15 12/8/8 22/22/22 23/27/26
f 10/17/17 9/12/12 19/24/24 20/28/27
f 7/20/20 98/29/19 17/30/28
f 14/3/3 13/15/15 23/27/26 24/31/29
f 11/7/7 10/17/17 20/28/27 21/21/21
f 8/11/11 7/20/20 17/30/28 18/23/23
f 15/4/4 14/3/3 24/31/29 25/26/25
f 18/23/23 17/30/28 26/32/30 27/33/31
f 25/26/25 24/31/29 33/34/32 34/35/33
f 22/22/22 21/21/21 30/36/34 31/37/35
f 19/24/24 18/23/23 27/33/31 28/38/36
f 16/39/13 25/26/25 34/35/33
f 23/27/26 22/22/22 31/37/35 32/40/37
f 20/28/27 19/24/24 28/38/36 29/41/38
f 17/30/28 98/42/19 26/32/30
f 24/31/29 23/27/26 32/40/37 33/34/32
f 21/21/21 20/28/27 29/41/38 30/36/34
f 33/34/32 32/40/37 41/43/39 42/44/40
f 30/36/34 29/41/38 38/45/41 39/46/42
f 27/33/31 26/32/30 35/47/43 36/48/44
f 34/35/33 33/34/32 42/44/40 43/49/45
f 31/37/35 30/36/34 39/46/42 40/50/46
f 28/38/36 27/33/31 36/48/44 37/51/47
f 16/52/13 34/35/33 43/49/45
f 32/40/37 31/37/35 40/50/46 41/43/39
f 29/41/38 28/38/36 37/51/47 38/45/41
f 26/32/30 98/53/19 35/47/43
f 38/45/41 37/51/47 46/54/48 47/55/49
f 35/47/43 98/56/19 44/57/50
f 42/44/40 41/43/39 50/58/51 51/59/52
f 39/46/42 38/45/41 47/55/49 48/60/53
f 36/48/44 35/47/43 44/57/50 45/61/54
f 43/49/45 42/44/40 51/59/52 52/62/55
f 40/50/46 39/46/42 48/60/53 49/63/56
f 37/51/47 36/48/44 45/61/54 46/54/48
f 16/64/13 43/49/45 52/62/55
f 41/43/39 40/50/46 49/63/56 50/58/51
f 50/58/51 49/63/56 58/65/57 59/66/58
f 47/55/49 46/54/48 55/67/59 56/68/60
f 44/57/50 98/69/19 53/70/61
f 51/59/52 50/58/51 59/66/58 60/71/62
f 48/60/53 47/55/49 56/68/60 57/72/63
f 45/61/54 44/57/50 53/70/61 54/73/64
f 52/62/55 51/59/52 60/71/62 61/74/65
f 49/63/56 48/60/53 57/72/63 58/65/57
f 46/54/48 45/61/54 54/73/64 55/67/59
f 16/75/13 52/62/55 61/74/65
f 55/67/59 54/73/64 63/76/66 64/77/67
f 16/78/13 61/74/65 70/79/68
f 59/66/58 58/65/57 67/80/69 68/81/70
f 56/68/60 55/67/59 64/77/67 65/82/71
f 53/70/61 98/83/19 62/84/72
f 60/71/62 59/66/58 68/81/70 69/85/73
f 57/72/63 56/68/60 65/82/71 66/86/74
f 54/73/64 53/70/61 62/84/72 63/76/66
f 61/74/65 60/71/62 69/85/73 70/79/68
f 58/65/57 57/72/63 66/86/74 67/80/69
f 70/79/68 69/85/73 78/87/75 79/88/76
f 67/80/69 66/86/74 75/89/77 76/90/78
f 64/77/67 63/76/66 72/91/79 73/92/80
f 16/93/13 70/79/68 79/88/76
f 68/81/70 67/80/69 76/90/78 77/94/81
f 65/82/71 64/77/67 73/92/80 74/95/82
f 62/84/72 98/96/19 71/97/83
f 69/85/73 68/81/70 77/94/81 78/87/75
f 66/86/74 65/82/71 74/95/82 75/89/77
f 63/76/66 62/84/72 71/97/83 72/91/79
f 75/89/77 74/95/82 83/98/84 84/99/85
f 72/91/79 71/97/83 80/100/86 81/101/87
f 79/88/76 78/87/75 87/102/88 88/103/89
f 76/90/78 75/89/77 84/99/85 85/104/90
f 73/92/80 72/91/79 81/101/87 82/105/91
f 16/106/13 79/88/76 88/103/89
f 77/94/81 76/90/78 85/104/90 86/107/92
f 74/95/82 73/92/80 82/105/91 83/98/84
f 71/97/83 98/108/19 80/100/86
f 78/87/75 77/94/81 86/107/92 87/102/88
f 80/100/86 98/109/19 89/110/93
f 87/102/88 86/107/92 95/111/94 96/112/95
f 84/99/85 83/98/84 92/113/96 93/114/97
f 81/101/87 80/100/86 89/110/93 90/115/98
f 88/103/89 87/102/88 96/112/95 97/116/99
f 85/104/90 84/99/85 93/114/97 94/117/100
f 82/105/91 81/101/87 90/115/98 91/118/101
f 16/119/13 88/103/89 97/116/99
f 86/107/92 85/104/90 94/117/100 95/111/94
f 83/98/84 82/105/91 91/118/101 92/113/96
f 92/113/96 91/118/101 101/120/102 102/121/103
f 89/110/93 98/122/19 99/123/104
f 96/112/95 95/111/94 105/124/105 106/125/106
f 93/114/97 92/113/96 102/121/103 103/126/107
f 90/115/98 89/110/93 99/123/104 100/127/108
f 97/116/99 96/112/95 106/125/106 107/128/109
f 94/117/100 93/114/97 103/126/107 104/129/110
f 91/118/101 90/115/98 100/127/108 101/120/102
f 16/130/13 97/116/99 107/128/109
f 95/111/94 94/117/100 104/129/110 105/124/105
f 16/131/13 107/128/109 116/132/111
f 105/124/105 104/129/110 113/133/112 114/134/113
f 102/121/103 101/120/102 110/135/114 111/136/115
f 99/123/104 98/137/19 108/138/116
f 106/125/106 105/124/105 114/134/113 115/139/117
f 103/126/107 102/121/103 111/136/115 112/140/118
f 100/127/108 99/123/104 108/138/116 109/141/119
f 107/128/109 106/125/106 115/139/117 116/132/111
f 104/129/110 103/126/107 112/140/118 113/133/112
f 101/120/102 100/127/108 109/141/119 110/135/114
f 113/142/112 112/143/118 121/144/120 122/145/121
f 110/146/114 109/147/119 118/148/122 119/149/123
f 16/150/13 116/151/111 125/152/124
f 114/153/113 113/142/112 122/145/121 123/154/125
f 111/155/115 110/146/114 119/149/123 120/156/126
f 108/157/116 98/158/19 117/159/127
f 115/160/117 114/153/113 123/154/125 124/161/128
f 112/143/118 111/155/115 120/156/126 121/144/120
f 109/147/119 108/157/116 117/159/127 118/148/122
f 116/151/111 115/160/117 124/161/128 125/152/124
f 118/148/122 117/159/127 126/162/129 127/163/130
f 125/152/124 124/161/128 133/164/131 134/165/132
f 122/145/121 121/144/120 130/166/133 131/167/134
f 119/149/123 118/148/122 127/163/130 128/168/135
f 16/169/13 125/152/124 134/165/132
f 123/154/125 122/145/121 131/167/134 132/170/136
f 120/156/126 119/149/123 128/168/135 129/171/137
f 117/159/127 98/172/19 126/162/129
f 124/161/128 123/154/125 132/170/136 133/164/131
f 121/144/120 120/156/126 129/171/137 130/166/133
f 130/166/133 129/171/137 138/173/138 139/174/139
f 127/163/130 126/162/129 135/175/140 136/176/141
f 134/165/132 133/164/131 142/177/142 143/178/143
f 131/167/134 130/166/133 139/174/139 140/179/144
f 128/168/135 127/163/130 136/176/141 137/180/145
f 16/181/13 134/165/132 143/178/143
f 132/170/136 131/167/134 140/179/144 141/182/146
f 129/171/137 128/168/135 137/180/145 138/173/138
f 126/162/129 98/183/19 135/175/140
f 133/164/131 132/170/136 141/182/146 142/177/142
f 135/175/140 98/184/19 1/18/18
f 142/177/142 141/182/146 146/14/14 5/2/2
f 139/174/139 138/173/138 2/16/16 3/6/6
f 136/176/141 135/175/140 1/18/18 144/10/10
f 143/178/143 142/177/142 5/2/2 6/1/1
f 140/179/144 139/174/139 3/6/6 4/5/5
f 137/180/145 136/176/141 144/10/10 145/9/9
f 16/185/13 143/178/143 6/1/1
f 141/182/146 140/179/144 4/5/5 146/14/14
f 138/173/138 137/180/145 145/9/9 2/16/16
